ISO-10303-21;
HEADER;
FILE_DESCRIPTION (( 'STEP AP214' ),
    '1' );
FILE_NAME ('YZV4.STEP',
    '2020-08-06T11:22:55',
    ( '' ),
    ( '' ),
    'SwSTEP 2.0',
    'SolidWorks 2017',
    '' );
FILE_SCHEMA (( 'AUTOMOTIVE_DESIGN' ));
ENDSEC;

DATA;
#1 = AXIS2_PLACEMENT_3D ( 'NONE', #263, #357, #77 ) ;
#2 = EDGE_CURVE ( 'NONE', #239, #416, #250, .T. ) ;
#3 = SURFACE_SIDE_STYLE ('',( #383 ) ) ;
#4 =( LENGTH_UNIT ( ) NAMED_UNIT ( * ) SI_UNIT ( .MILLI., .METRE. ) );
#5 = FACE_OUTER_BOUND ( 'NONE', #138, .T. ) ;
#6 =( NAMED_UNIT ( * ) SI_UNIT ( $, .STERADIAN. ) SOLID_ANGLE_UNIT ( ) );
#7 = DIRECTION ( 'NONE',  ( 1.000000000000000000, 7.666467083416847500E-016, 0.0000000000000000000 ) ) ;
#8 = VERTEX_POINT ( 'NONE', #93 ) ;
#9 = ORIENTED_EDGE ( 'NONE', *, *, #230, .T. ) ;
#10 = DIRECTION ( 'NONE',  ( -0.0000000000000000000, -0.0000000000000000000, 1.000000000000000000 ) ) ;
#11 = AXIS2_PLACEMENT_3D ( 'NONE', #178, #302, #128 ) ;
#12 = CARTESIAN_POINT ( 'NONE',  ( -0.2499999999999997800, 0.1125000000000000000, -0.1374999999999999000 ) ) ;
#13 = CARTESIAN_POINT ( 'NONE',  ( -0.1792893218813449400, 0.1999999999999999000, 0.2500000000000001100 ) ) ;
#14 = DIRECTION ( 'NONE',  ( 1.000000000000000000, 0.0000000000000000000, 0.0000000000000000000 ) ) ;
#15 = EDGE_CURVE ( 'NONE', #621, #269, #243, .T. ) ;
#16 = SURFACE_STYLE_USAGE ( .BOTH. , #253 ) ;
#17 = COLOUR_RGB ( '',0.7921568627450980000, 0.8196078431372548800, 0.9333333333333333500 ) ;
#18 = FACE_OUTER_BOUND ( 'NONE', #588, .T. ) ;
#19 = CARTESIAN_POINT ( 'NONE',  ( -0.4440000000000001200, 0.1999999999999997100, -0.4440000000000001700 ) ) ;
#20 =( NAMED_UNIT ( * ) PLANE_ANGLE_UNIT ( ) SI_UNIT ( $, .RADIAN. ) );
#21 = SURFACE_STYLE_FILL_AREA ( #439 ) ;
#22 = CARTESIAN_POINT ( 'NONE',  ( 0.3207106781186550600, 0.2000000000000002600, 0.2500000000000001100 ) ) ;
#23 = ORIENTED_EDGE ( 'NONE', *, *, #478, .T. ) ;
#24 = VERTEX_POINT ( 'NONE', #375 ) ;
#25 = APPLICATION_PROTOCOL_DEFINITION ( 'draft international standard', 'automotive_design', 1998, #597 ) ;
#26 =( NAMED_UNIT ( * ) PLANE_ANGLE_UNIT ( ) SI_UNIT ( $, .RADIAN. ) );
#27 = DIRECTION ( 'NONE',  ( 1.469576158976822600E-016, 1.000000000000000000, -7.081411840869217600E-032 ) ) ;
#28 = DIRECTION ( 'NONE',  ( -0.0000000000000000000, 1.000000000000000000, 0.0000000000000000000 ) ) ;
#29 = COLOUR_RGB ( '',0.2509803921568627400, 0.2509803921568627400, 0.2509803921568627400 ) ;
#30 = FILL_AREA_STYLE ('',( #499 ) ) ;
#31 = CARTESIAN_POINT ( 'NONE',  ( -0.1792893218813449400, 0.1999999999999999000, -0.2499999999999998900 ) ) ;
#32 = DIRECTION ( 'NONE',  ( -2.449293598294693300E-017, -1.000000000000000000, 1.180235306811531100E-032 ) ) ;
#33 = DIRECTION ( 'NONE',  ( 6.715216158412471100E-016, -1.000000000000000000, 0.0000000000000000000 ) ) ;
#34 = FACE_BOUND ( 'NONE', #399, .T. ) ;
#35 = DIRECTION ( 'NONE',  ( -0.0000000000000000000, -0.0000000000000000000, 1.000000000000000000 ) ) ;
#36 = AXIS2_PLACEMENT_3D ( 'NONE', #216, #594, #303 ) ;
#37 = ORIENTED_EDGE ( 'NONE', *, *, #428, .F. ) ;
#38 = STYLED_ITEM ( 'NONE', ( #305 ), #584 ) ;
#39 = UNCERTAINTY_MEASURE_WITH_UNIT (LENGTH_MEASURE( 1.000000000000000100E-005 ), #598, 'distance_accuracy_value', 'NONE');
#40 = VECTOR ( 'NONE', #360, 1000.000000000000000 ) ;
#41 = ORIENTED_EDGE ( 'NONE', *, *, #508, .T. ) ;
#42 = ORIENTED_EDGE ( 'NONE', *, *, #463, .F. ) ;
#43 = DIRECTION ( 'NONE',  ( 0.0000000000000000000, 0.0000000000000000000, -1.000000000000000000 ) ) ;
#44 =( GEOMETRIC_REPRESENTATION_CONTEXT ( 3 ) GLOBAL_UNCERTAINTY_ASSIGNED_CONTEXT ( ( #339 ) ) GLOBAL_UNIT_ASSIGNED_CONTEXT ( ( #246, #106, #255 ) ) REPRESENTATION_CONTEXT ( 'NONE', 'WORKASPACE' ) );
#45 = CARTESIAN_POINT ( 'NONE',  ( -0.4440000000000003400, 0.4999999999999997800, -0.4440000000000001700 ) ) ;
#46 = SPHERICAL_SURFACE ( 'NONE', #208, 0.1125000000000000000 ) ;
#47 = EDGE_CURVE ( 'NONE', #516, #95, #110, .T. ) ;
#48 = PRODUCT ( 'YZV4', 'YZV4', '', ( #415 ) ) ;
#49 = PLANE ( 'NONE',  #241 ) ;
#50 = DIRECTION ( 'NONE',  ( 6.715216158412471100E-016, -1.000000000000000000, 0.0000000000000000000 ) ) ;
#51 = DIRECTION ( 'NONE',  ( 6.715216158412471100E-016, -1.000000000000000000, 0.0000000000000000000 ) ) ;
#52 = SPHERICAL_SURFACE ( 'NONE', #321, 0.1125000000000000000 ) ;
#53 = VECTOR ( 'NONE', #175, 1000.000000000000000 ) ;
#54 = FILL_AREA_STYLE ('',( #287 ) ) ;
#55 = UNCERTAINTY_MEASURE_WITH_UNIT (LENGTH_MEASURE( 1.000000000000000100E-005 ), #348, 'distance_accuracy_value', 'NONE');
#56 = EDGE_CURVE ( 'NONE', #420, #532, #235, .T. ) ;
#57 = ORIENTED_EDGE ( 'NONE', *, *, #454, .T. ) ;
#58 = CARTESIAN_POINT ( 'NONE',  ( -0.2499999999999998300, 0.1125000000000000000, -0.2499999999999998900 ) ) ;
#59 = CIRCLE ( 'NONE', #616, 0.1125000000000000300 ) ;
#60 = COLOUR_RGB ( '',0.2509803921568627400, 0.2509803921568627400, 0.2509803921568627400 ) ;
#61 = CARTESIAN_POINT ( 'NONE',  ( -0.4440000000000001200, 0.1999999999999997100, 0.4439999999999998400 ) ) ;
#62 = FILL_AREA_STYLE ('',( #122 ) ) ;
#63 = VERTEX_POINT ( 'NONE', #194 ) ;
#64 = DIRECTION ( 'NONE',  ( 1.000000000000000000, 0.0000000000000000000, -4.818676322157797400E-016 ) ) ;
#65 = ORIENTED_EDGE ( 'NONE', *, *, #495, .F. ) ;
#66 = FILL_AREA_STYLE_COLOUR ( '', #566 ) ;
#67 = PRODUCT_DEFINITION ( 'UNKNOWN', '', #100, #562 ) ;
#68 = CARTESIAN_POINT ( 'NONE',  ( -0.4440000000000001200, 0.1999999999999997100, 0.4439999999999998400 ) ) ;
#69 = LINE ( 'NONE', #599, #53 ) ;
#70 = CIRCLE ( 'NONE', #121, 0.1125000000000000000 ) ;
#71 = PLANE ( 'NONE',  #1 ) ;
#72 = FILL_AREA_STYLE_COLOUR ( '', #29 ) ;
#73 = VECTOR ( 'NONE', #35, 1000.000000000000000 ) ;
#74 = ORIENTED_EDGE ( 'NONE', *, *, #47, .T. ) ;
#75 =( NAMED_UNIT ( * ) PLANE_ANGLE_UNIT ( ) SI_UNIT ( $, .RADIAN. ) );
#76 = CARTESIAN_POINT ( 'NONE',  ( 0.2500000000000001700, 0.1125000000000003500, 0.2500000000000001100 ) ) ;
#77 = DIRECTION ( 'NONE',  ( -1.000000000000000000, 0.0000000000000000000, -1.220948392438631100E-016 ) ) ;
#78 = SURFACE_STYLE_USAGE ( .BOTH. , #264 ) ;
#79 = PRESENTATION_LAYER_ASSIGNMENT (  '', '', ( #245 ) ) ;
#80 = LINE ( 'NONE', #301, #603 ) ;
#81 = AXIS2_PLACEMENT_3D ( 'NONE', #554, #32, #413 ) ;
#82 = ORIENTED_EDGE ( 'NONE', *, *, #214, .T. ) ;
#83 = ORIENTED_EDGE ( 'NONE', *, *, #171, .T. ) ;
#84 = ORIENTED_EDGE ( 'NONE', *, *, #230, .F. ) ;
#85 = ADVANCED_FACE ( 'NONE', ( #607 ), #49, .F. ) ;
#86 = FILL_AREA_STYLE ('',( #608 ) ) ;
#87 =( GEOMETRIC_REPRESENTATION_CONTEXT ( 3 ) GLOBAL_UNCERTAINTY_ASSIGNED_CONTEXT ( ( #518 ) ) GLOBAL_UNIT_ASSIGNED_CONTEXT ( ( #4, #534, #529 ) ) REPRESENTATION_CONTEXT ( 'NONE', 'WORKASPACE' ) );
#88 = DIRECTION ( 'NONE',  ( 1.000000000000000000, 0.0000000000000000000, 0.0000000000000000000 ) ) ;
#89 = SPHERICAL_SURFACE ( 'NONE', #350, 0.1125000000000000000 ) ;
#90 = AXIS2_PLACEMENT_3D ( 'NONE', #393, #169, #166 ) ;
#91 = ORIENTED_EDGE ( 'NONE', *, *, #200, .F. ) ;
#92 = ORIENTED_EDGE ( 'NONE', *, *, #191, .T. ) ;
#93 = CARTESIAN_POINT ( 'NONE',  ( 0.2500000000000001100, 0.1125000000000003500, -0.3624999999999998800 ) ) ;
#94 = PRESENTATION_STYLE_ASSIGNMENT (( #115 ) ) ;
#95 = VERTEX_POINT ( 'NONE', #521 ) ;
#96 = ORIENTED_EDGE ( 'NONE', *, *, #333, .T. ) ;
#97 = ADVANCED_FACE ( 'NONE', ( #364 ), #575, .T. ) ;
#98 = DIRECTION ( 'NONE',  ( 1.000000000000000000, 7.666467083416847500E-016, 0.0000000000000000000 ) ) ;
#99 = FACE_OUTER_BOUND ( 'NONE', #210, .T. ) ;
#100 = PRODUCT_DEFINITION_FORMATION_WITH_SPECIFIED_SOURCE ( 'ANY', '', #48, .NOT_KNOWN. ) ;
#101 = AXIS2_PLACEMENT_3D ( 'NONE', #103, #201, #338 ) ;
#102 = FACE_OUTER_BOUND ( 'NONE', #111, .T. ) ;
#103 = CARTESIAN_POINT ( 'NONE',  ( -0.2499999999999998900, 0.1999999999999998400, -0.2499999999999998900 ) ) ;
#104 = VERTEX_POINT ( 'NONE', #366 ) ;
#105 = DIRECTION ( 'NONE',  ( 6.930918406685710100E-016, -1.000000000000000000, 0.0000000000000000000 ) ) ;
#106 =( NAMED_UNIT ( * ) PLANE_ANGLE_UNIT ( ) SI_UNIT ( $, .RADIAN. ) );
#107 = DIRECTION ( 'NONE',  ( 1.000000000000000000, 0.0000000000000000000, -4.818676322157796400E-016 ) ) ;
#108 = LINE ( 'NONE', #256, #606 ) ;
#109 = CARTESIAN_POINT ( 'NONE',  ( 0.4439999999999998900, 0.2000000000000003200, 0.4439999999999999500 ) ) ;
#110 = LINE ( 'NONE', #45, #513 ) ;
#111 = EDGE_LOOP ( 'NONE', ( #505, #345, #133, #354 ) ) ;
#112 = CARTESIAN_POINT ( 'NONE',  ( 0.2500000000000002200, 0.1125000000000003500, 0.3625000000000001000 ) ) ;
#113 = SURFACE_SIDE_STYLE ('',( #618 ) ) ;
#114 = MECHANICAL_DESIGN_GEOMETRIC_PRESENTATION_REPRESENTATION (  '', ( #617 ), #143 ) ;
#115 = SURFACE_STYLE_USAGE ( .BOTH. , #535 ) ;
#116 = CARTESIAN_POINT ( 'NONE',  ( 0.4999999999999998900, 0.2000000000000003700, 0.0000000000000000000 ) ) ;
#117 = SPHERICAL_SURFACE ( 'NONE', #276, 0.1125000000000000000 ) ;
#118 = DIRECTION ( 'NONE',  ( 6.930918406685710100E-016, -1.000000000000000000, 0.0000000000000000000 ) ) ;
#119 = CARTESIAN_POINT ( 'NONE',  ( 0.4439999999999998900, 0.2000000000000003200, -0.4440000000000000600 ) ) ;
#120 = PRESENTATION_STYLE_ASSIGNMENT (( #150 ) ) ;
#121 = AXIS2_PLACEMENT_3D ( 'NONE', #209, #442, #14 ) ;
#122 = FILL_AREA_STYLE_COLOUR ( '', #283 ) ;
#123 = CARTESIAN_POINT ( 'NONE',  ( 0.1792893218813451700, 0.2000000000000001500, -0.2499999999999998900 ) ) ;
#124 = FILL_AREA_STYLE_COLOUR ( '', #367 ) ;
#125 = STYLED_ITEM ( 'NONE', ( #142 ), #509 ) ;
#126 = EDGE_CURVE ( 'NONE', #484, #328, #519, .T. ) ;
#127 = ADVANCED_BREP_SHAPE_REPRESENTATION ( 'YZV4', ( #584, #468, #386, #140, #278, #561 ), #394 ) ;
#128 = DIRECTION ( 'NONE',  ( -1.000000000000000000, 1.204669080539449300E-016, 0.0000000000000000000 ) ) ;
#129 = DIRECTION ( 'NONE',  ( 1.000000000000000000, 0.0000000000000000000, -4.818676322157797400E-016 ) ) ;
#130 = CIRCLE ( 'NONE', #372, 0.07071067811865496000 ) ;
#131 =( LENGTH_UNIT ( ) NAMED_UNIT ( * ) SI_UNIT ( .MILLI., .METRE. ) );
#132 = EDGE_LOOP ( 'NONE', ( #156, #319, #222, #567 ) ) ;
#133 = ORIENTED_EDGE ( 'NONE', *, *, #15, .T. ) ;
#134 =( NAMED_UNIT ( * ) SI_UNIT ( $, .STERADIAN. ) SOLID_ANGLE_UNIT ( ) );
#135 = AXIS2_PLACEMENT_3D ( 'NONE', #483, #147, #198 ) ;
#136 = PRESENTATION_LAYER_ASSIGNMENT (  '', '', ( #125 ) ) ;
#137 = AXIS2_PLACEMENT_3D ( 'NONE', #573, #421, #284 ) ;
#138 = EDGE_LOOP ( 'NONE', ( #330, #82 ) ) ;
#139 = VERTEX_POINT ( 'NONE', #334 ) ;
#140 = MANIFOLD_SOLID_BREP ( 'Sketch-Pattern1[3]', #377 ) ;
#141 = AXIS2_PLACEMENT_3D ( 'NONE', #116, #542, #254 ) ;
#142 = PRESENTATION_STYLE_ASSIGNMENT (( #265 ) ) ;
#143 =( GEOMETRIC_REPRESENTATION_CONTEXT ( 3 ) GLOBAL_UNCERTAINTY_ASSIGNED_CONTEXT ( ( #251 ) ) GLOBAL_UNIT_ASSIGNED_CONTEXT ( ( #382, #474, #157 ) ) REPRESENTATION_CONTEXT ( 'NONE', 'WORKASPACE' ) );
#144 = DIRECTION ( 'NONE',  ( 6.715216158412471100E-016, -1.000000000000000000, 0.0000000000000000000 ) ) ;
#145 = ADVANCED_FACE ( 'NONE', ( #102 ), #476, .T. ) ;
#146 = EDGE_LOOP ( 'NONE', ( #460, #370 ) ) ;
#147 = DIRECTION ( 'NONE',  ( 6.715216158412471100E-016, -1.000000000000000000, 0.0000000000000000000 ) ) ;
#148 = ORIENTED_EDGE ( 'NONE', *, *, #495, .T. ) ;
#149 = CARTESIAN_POINT ( 'NONE',  ( -0.4440000000000003400, 0.4999999999999997800, 0.4439999999999998400 ) ) ;
#150 = SURFACE_STYLE_USAGE ( .BOTH. , #3 ) ;
#151 = FACE_BOUND ( 'NONE', #177, .T. ) ;
#152 = EDGE_CURVE ( 'NONE', #63, #553, #248, .T. ) ;
#153 = PRESENTATION_STYLE_ASSIGNMENT (( #479 ) ) ;
#154 = CARTESIAN_POINT ( 'NONE',  ( -0.4440000000000003400, 0.4999999999999997800, 0.4439999999999998400 ) ) ;
#155 = VERTEX_POINT ( 'NONE', #582 ) ;
#156 = ORIENTED_EDGE ( 'NONE', *, *, #454, .F. ) ;
#157 =( NAMED_UNIT ( * ) SI_UNIT ( $, .STERADIAN. ) SOLID_ANGLE_UNIT ( ) );
#158 = EDGE_CURVE ( 'NONE', #532, #420, #130, .T. ) ;
#159 = CARTESIAN_POINT ( 'NONE',  ( 0.4439999999999996700, 0.5000000000000003300, 0.4439999999999999500 ) ) ;
#160 = DIRECTION ( 'NONE',  ( 1.469576158976822600E-016, 1.000000000000000000, -7.081411840869217600E-032 ) ) ;
#161 = COLOUR_RGB ( '',0.2509803921568627400, 0.2509803921568627400, 0.2509803921568627400 ) ;
#162 = SPHERICAL_SURFACE ( 'NONE', #427, 0.1125000000000000000 ) ;
#163 = DIRECTION ( 'NONE',  ( -1.220948392438631100E-016, -8.462293686766235400E-032, 1.000000000000000000 ) ) ;
#164 = STYLED_ITEM ( 'NONE', ( #431 ), #228 ) ;
#165 = COLOUR_RGB ( '',0.2509803921568627400, 0.2509803921568627400, 0.2509803921568627400 ) ;
#166 = DIRECTION ( 'NONE',  ( 1.000000000000000000, 0.0000000000000000000, 0.0000000000000000000 ) ) ;
#167 = EDGE_LOOP ( 'NONE', ( #189, #622 ) ) ;
#168 = CARTESIAN_POINT ( 'NONE',  ( 0.0000000000000000000, 0.0000000000000000000, 0.0000000000000000000 ) ) ;
#169 = DIRECTION ( 'NONE',  ( -2.449293598294693300E-017, -1.000000000000000000, 1.180235306811531100E-032 ) ) ;
#170 = AXIS2_PLACEMENT_3D ( 'NONE', #299, #204, #107 ) ;
#171 = EDGE_CURVE ( 'NONE', #342, #516, #494, .T. ) ;
#172 = CARTESIAN_POINT ( 'NONE',  ( -0.2499999999999997800, 0.1125000000000000000, 0.3625000000000001000 ) ) ;
#173 = FACE_OUTER_BOUND ( 'NONE', #464, .T. ) ;
#174 = UNCERTAINTY_MEASURE_WITH_UNIT (LENGTH_MEASURE( 1.000000000000000100E-005 ), #296, 'distance_accuracy_value', 'NONE');
#175 = DIRECTION ( 'NONE',  ( 6.930918406685710100E-016, -1.000000000000000000, 0.0000000000000000000 ) ) ;
#176 = DIRECTION ( 'NONE',  ( 1.000000000000000000, 6.715216158412471100E-016, 0.0000000000000000000 ) ) ;
#177 = EDGE_LOOP ( 'NONE', ( #552, #540 ) ) ;
#178 = CARTESIAN_POINT ( 'NONE',  ( 0.2500000000000001700, 0.1125000000000003500, 0.2500000000000001100 ) ) ;
#179 = ORIENTED_EDGE ( 'NONE', *, *, #369, .F. ) ;
#180 = DIRECTION ( 'NONE',  ( 1.469576158976822600E-016, 1.000000000000000000, -7.081411840869217600E-032 ) ) ;
#181 =( NAMED_UNIT ( * ) PLANE_ANGLE_UNIT ( ) SI_UNIT ( $, .RADIAN. ) );
#182 =( NAMED_UNIT ( * ) SI_UNIT ( $, .STERADIAN. ) SOLID_ANGLE_UNIT ( ) );
#183 = AXIS2_PLACEMENT_3D ( 'NONE', #539, #592, #341 ) ;
#184 = EDGE_CURVE ( 'NONE', #553, #63, #619, .T. ) ;
#185 = EDGE_LOOP ( 'NONE', ( #391, #574, #57, #41 ) ) ;
#186 = ADVANCED_FACE ( 'NONE', ( #237 ), #429, .F. ) ;
#187 = VECTOR ( 'NONE', #538, 1000.000000000000000 ) ;
#188 = FACE_BOUND ( 'NONE', #426, .T. ) ;
#189 = ORIENTED_EDGE ( 'NONE', *, *, #152, .F. ) ;
#190 = AXIS2_PLACEMENT_3D ( 'NONE', #390, #436, #98 ) ;
#191 = EDGE_CURVE ( 'NONE', #104, #311, #363, .T. ) ;
#192 = PRESENTATION_STYLE_ASSIGNMENT (( #16 ) ) ;
#193 = ADVANCED_FACE ( 'NONE', ( #423 ), #336, .F. ) ;
#194 = CARTESIAN_POINT ( 'NONE',  ( 0.3207106781186550600, 0.2000000000000002600, -0.2499999999999998900 ) ) ;
#195 = EDGE_LOOP ( 'NONE', ( #232, #91, #74, #365 ) ) ;
#196 = AXIS2_PLACEMENT_3D ( 'NONE', #589, #536, #547 ) ;
#197 = DIRECTION ( 'NONE',  ( 1.000000000000000000, 6.715216158412471100E-016, 1.220948392438631100E-016 ) ) ;
#198 = DIRECTION ( 'NONE',  ( 1.000000000000000000, 7.666467083416847500E-016, 0.0000000000000000000 ) ) ;
#199 = FACE_OUTER_BOUND ( 'NONE', #310, .T. ) ;
#200 = EDGE_CURVE ( 'NONE', #516, #269, #108, .T. ) ;
#201 = DIRECTION ( 'NONE',  ( 6.715216158412471100E-016, -1.000000000000000000, 0.0000000000000000000 ) ) ;
#202 = SURFACE_SIDE_STYLE ('',( #337 ) ) ;
#203 = EDGE_LOOP ( 'NONE', ( #579, #378 ) ) ;
#204 = DIRECTION ( 'NONE',  ( -0.0000000000000000000, 1.000000000000000000, 0.0000000000000000000 ) ) ;
#205 = FILL_AREA_STYLE ('',( #124 ) ) ;
#206 = CARTESIAN_POINT ( 'NONE',  ( -0.2499999999999998900, 0.1999999999999998400, 0.2500000000000001100 ) ) ;
#207 = DIRECTION ( 'NONE',  ( -0.0000000000000000000, 1.000000000000000000, 0.0000000000000000000 ) ) ;
#208 = AXIS2_PLACEMENT_3D ( 'NONE', #556, #312, #129 ) ;
#209 = CARTESIAN_POINT ( 'NONE',  ( -0.2499999999999998300, 0.1125000000000000000, 0.2500000000000001100 ) ) ;
#210 = EDGE_LOOP ( 'NONE', ( #475, #23 ) ) ;
#211 = EDGE_LOOP ( 'NONE', ( #344, #148 ) ) ;
#212 = SURFACE_STYLE_USAGE ( .BOTH. , #530 ) ;
#213 =( NAMED_UNIT ( * ) SI_UNIT ( $, .STERADIAN. ) SOLID_ANGLE_UNIT ( ) );
#214 = EDGE_CURVE ( 'NONE', #24, #288, #70, .T. ) ;
#215 = CARTESIAN_POINT ( 'NONE',  ( 0.2500000000000001100, 0.2000000000000002100, 0.2500000000000001100 ) ) ;
#216 = CARTESIAN_POINT ( 'NONE',  ( 0.2500000000000001700, 0.1125000000000003500, -0.2499999999999998900 ) ) ;
#217 = SURFACE_STYLE_USAGE ( .BOTH. , #459 ) ;
#218 = DIRECTION ( 'NONE',  ( 1.000000000000000000, 0.0000000000000000000, -4.818676322157797400E-016 ) ) ;
#219 = UNCERTAINTY_MEASURE_WITH_UNIT (LENGTH_MEASURE( 1.000000000000000100E-005 ), #371, 'distance_accuracy_value', 'NONE');
#220 =( GEOMETRIC_REPRESENTATION_CONTEXT ( 3 ) GLOBAL_UNCERTAINTY_ASSIGNED_CONTEXT ( ( #361 ) ) GLOBAL_UNIT_ASSIGNED_CONTEXT ( ( #445, #452, #213 ) ) REPRESENTATION_CONTEXT ( 'NONE', 'WORKASPACE' ) );
#221 = SURFACE_STYLE_USAGE ( .BOTH. , #492 ) ;
#222 = ORIENTED_EDGE ( 'NONE', *, *, #171, .F. ) ;
#223 = DIRECTION ( 'NONE',  ( -1.000000000000000000, 1.204669080539449100E-016, 0.0000000000000000000 ) ) ;
#224 = DIRECTION ( 'NONE',  ( -0.0000000000000000000, 1.000000000000000000, 0.0000000000000000000 ) ) ;
#225 = AXIS2_PLACEMENT_3D ( 'NONE', #555, #33, #400 ) ;
#226 =( NAMED_UNIT ( * ) SI_UNIT ( $, .STERADIAN. ) SOLID_ANGLE_UNIT ( ) );
#227 = DIRECTION ( 'NONE',  ( 1.000000000000000000, 0.0000000000000000000, -4.818676322157796400E-016 ) ) ;
#228 = ADVANCED_FACE ( 'NONE', ( #307 ), #500, .T. ) ;
#229 =( LENGTH_UNIT ( ) NAMED_UNIT ( * ) SI_UNIT ( .MILLI., .METRE. ) );
#230 = EDGE_CURVE ( 'NONE', #8, #139, #596, .T. ) ;
#231 = EDGE_LOOP ( 'NONE', ( #477, #96 ) ) ;
#232 = ORIENTED_EDGE ( 'NONE', *, *, #414, .F. ) ;
#233 = VERTEX_POINT ( 'NONE', #22 ) ;
#234 = PRESENTATION_LAYER_ASSIGNMENT (  '', '', ( #443 ) ) ;
#235 = CIRCLE ( 'NONE', #137, 0.07071067811865496000 ) ;
#236 = UNCERTAINTY_MEASURE_WITH_UNIT (LENGTH_MEASURE( 1.000000000000000100E-005 ), #244, 'distance_accuracy_value', 'NONE');
#237 = FACE_OUTER_BOUND ( 'NONE', #455, .T. ) ;
#238 = AXIS2_PLACEMENT_3D ( 'NONE', #507, #180, #309 ) ;
#239 = VERTEX_POINT ( 'NONE', #119 ) ;
#240 = ADVANCED_FACE ( 'NONE', ( #34, #291 ), #52, .T. ) ;
#241 = AXIS2_PLACEMENT_3D ( 'NONE', #425, #144, #522 ) ;
#242 = SURFACE_STYLE_USAGE ( .BOTH. , #202 ) ;
#243 = LINE ( 'NONE', #472, #620 ) ;
#244 =( LENGTH_UNIT ( ) NAMED_UNIT ( * ) SI_UNIT ( .MILLI., .METRE. ) );
#245 = STYLED_ITEM ( 'NONE', ( #512 ), #127 ) ;
#246 =( LENGTH_UNIT ( ) NAMED_UNIT ( * ) SI_UNIT ( .MILLI., .METRE. ) );
#247 = COLOUR_RGB ( '',0.7921568627450980000, 0.8196078431372548800, 0.9333333333333333500 ) ;
#248 = CIRCLE ( 'NONE', #190, 0.07071067811865496000 ) ;
#249 = CARTESIAN_POINT ( 'NONE',  ( 0.2500000000000001100, 0.1125000000000003500, 0.1375000000000001200 ) ) ;
#250 = LINE ( 'NONE', #568, #73 ) ;
#251 = UNCERTAINTY_MEASURE_WITH_UNIT (LENGTH_MEASURE( 1.000000000000000100E-005 ), #382, 'distance_accuracy_value', 'NONE');
#252 = EDGE_CURVE ( 'NONE', #155, #233, #624, .T. ) ;
#253 = SURFACE_SIDE_STYLE ('',( #397 ) ) ;
#254 = DIRECTION ( 'NONE',  ( 1.000000000000000000, 6.715216158412471100E-016, 0.0000000000000000000 ) ) ;
#255 =( NAMED_UNIT ( * ) SI_UNIT ( $, .STERADIAN. ) SOLID_ANGLE_UNIT ( ) );
#256 = CARTESIAN_POINT ( 'NONE',  ( -0.4440000000000003400, 0.4999999999999997800, -0.4440000000000001700 ) ) ;
#257 = PRESENTATION_STYLE_ASSIGNMENT (( #295 ) ) ;
#258 = SHAPE_DEFINITION_REPRESENTATION ( #450, #127 ) ;
#259 = DIRECTION ( 'NONE',  ( -1.000000000000000000, 1.204669080539449300E-016, 0.0000000000000000000 ) ) ;
#260 = COLOUR_RGB ( '',0.2509803921568627400, 0.2509803921568627400, 0.2509803921568627400 ) ;
#261 = CARTESIAN_POINT ( 'NONE',  ( 0.2500000000000001700, 0.1125000000000003500, -0.2499999999999998900 ) ) ;
#262 = MECHANICAL_DESIGN_GEOMETRIC_PRESENTATION_REPRESENTATION (  '', ( #443 ), #537 ) ;
#263 = CARTESIAN_POINT ( 'NONE',  ( -0.4440000000000003400, 0.4999999999999997800, -0.4440000000000001700 ) ) ;
#264 = SURFACE_SIDE_STYLE ('',( #612 ) ) ;
#265 = SURFACE_STYLE_USAGE ( .BOTH. , #605 ) ;
#266 = SPHERICAL_SURFACE ( 'NONE', #533, 0.1125000000000000000 ) ;
#267 = FILL_AREA_STYLE_COLOUR ( '', #161 ) ;
#268 = ORIENTED_EDGE ( 'NONE', *, *, #343, .F. ) ;
#269 = VERTEX_POINT ( 'NONE', #19 ) ;
#270 = FILL_AREA_STYLE ('',( #456 ) ) ;
#271 =( NAMED_UNIT ( * ) PLANE_ANGLE_UNIT ( ) SI_UNIT ( $, .RADIAN. ) );
#272 = PRESENTATION_LAYER_ASSIGNMENT (  '', '', ( #381 ) ) ;
#273 = COLOUR_RGB ( '',0.7921568627450980000, 0.8196078431372548800, 0.9333333333333333500 ) ;
#274 = SURFACE_SIDE_STYLE ('',( #528 ) ) ;
#275 = ORIENTED_EDGE ( 'NONE', *, *, #369, .T. ) ;
#276 = AXIS2_PLACEMENT_3D ( 'NONE', #76, #28, #227 ) ;
#277 = APPLICATION_PROTOCOL_DEFINITION ( 'draft international standard', 'automotive_design', 1998, #611 ) ;
#278 = MANIFOLD_SOLID_BREP ( 'Sketch-Pattern1[4]', #332 ) ;
#279 = FACE_OUTER_BOUND ( 'NONE', #132, .T. ) ;
#280 = ORIENTED_EDGE ( 'NONE', *, *, #343, .T. ) ;
#281 = ADVANCED_FACE ( 'NONE', ( #389, #18 ), #89, .T. ) ;
#282 = CIRCLE ( 'NONE', #410, 0.1125000000000000000 ) ;
#283 = COLOUR_RGB ( '',0.7921568627450980000, 0.8196078431372548800, 0.9333333333333333500 ) ;
#284 = DIRECTION ( 'NONE',  ( 1.000000000000000000, 7.666467083416847500E-016, 0.0000000000000000000 ) ) ;
#285 = EDGE_LOOP ( 'NONE', ( #179, #590 ) ) ;
#286 = MECHANICAL_DESIGN_GEOMETRIC_PRESENTATION_REPRESENTATION (  '', ( #164 ), #473 ) ;
#287 = FILL_AREA_STYLE_COLOUR ( '', #165 ) ;
#288 = VERTEX_POINT ( 'NONE', #172 ) ;
#289 = EDGE_CURVE ( 'NONE', #24, #288, #502, .T. ) ;
#290 = DIRECTION ( 'NONE',  ( 1.000000000000000000, 6.715216158412471100E-016, 0.0000000000000000000 ) ) ;
#291 = FACE_OUTER_BOUND ( 'NONE', #211, .T. ) ;
#292 = CARTESIAN_POINT ( 'NONE',  ( -1.343043231682494200E-016, 0.2000000000000000100, 0.0000000000000000000 ) ) ;
#293 = ORIENTED_EDGE ( 'NONE', *, *, #15, .F. ) ;
#294 = DIRECTION ( 'NONE',  ( 0.0000000000000000000, 0.0000000000000000000, -1.000000000000000000 ) ) ;
#295 = SURFACE_STYLE_USAGE ( .BOTH. , #113 ) ;
#296 =( LENGTH_UNIT ( ) NAMED_UNIT ( * ) SI_UNIT ( .MILLI., .METRE. ) );
#297 = LINE ( 'NONE', #395, #322 ) ;
#298 =( GEOMETRIC_REPRESENTATION_CONTEXT ( 3 ) GLOBAL_UNCERTAINTY_ASSIGNED_CONTEXT ( ( #544 ) ) GLOBAL_UNIT_ASSIGNED_CONTEXT ( ( #131, #271, #182 ) ) REPRESENTATION_CONTEXT ( 'NONE', 'WORKASPACE' ) );
#299 = CARTESIAN_POINT ( 'NONE',  ( 0.2500000000000001700, 0.1125000000000003500, -0.2499999999999998900 ) ) ;
#300 = PRESENTATION_LAYER_ASSIGNMENT (  '', '', ( #525 ) ) ;
#301 = CARTESIAN_POINT ( 'NONE',  ( -0.4440000000000001200, 0.1999999999999997100, -0.4440000000000001700 ) ) ;
#302 = DIRECTION ( 'NONE',  ( 1.469576158976822600E-016, 1.000000000000000000, -7.081411840869217600E-032 ) ) ;
#303 = DIRECTION ( 'NONE',  ( 1.000000000000000000, 0.0000000000000000000, 0.0000000000000000000 ) ) ;
#304 = LINE ( 'NONE', #347, #187 ) ;
#305 = PRESENTATION_STYLE_ASSIGNMENT (( #217 ) ) ;
#306 = CARTESIAN_POINT ( 'NONE',  ( -0.3207106781186548300, 0.1999999999999997900, 0.2500000000000001100 ) ) ;
#307 = FACE_OUTER_BOUND ( 'NONE', #185, .T. ) ;
#308 = ADVANCED_FACE ( 'NONE', ( #151, #173 ), #266, .T. ) ;
#309 = DIRECTION ( 'NONE',  ( -1.000000000000000000, 1.204669080539449100E-016, 0.0000000000000000000 ) ) ;
#310 = EDGE_LOOP ( 'NONE', ( #42, #9 ) ) ;
#311 = VERTEX_POINT ( 'NONE', #12 ) ;
#312 = DIRECTION ( 'NONE',  ( -0.0000000000000000000, 1.000000000000000000, 0.0000000000000000000 ) ) ;
#313 = MECHANICAL_DESIGN_GEOMETRIC_PRESENTATION_REPRESENTATION (  '', ( #245 ), #419 ) ;
#314 = ADVANCED_FACE ( 'NONE', ( #5 ), #46, .T. ) ;
#315 = AXIS2_PLACEMENT_3D ( 'NONE', #292, #50, #290 ) ;
#316 = DIRECTION ( 'NONE',  ( -0.0000000000000000000, 1.000000000000000000, 0.0000000000000000000 ) ) ;
#317 = DIRECTION ( 'NONE',  ( 6.715216158412471100E-016, -1.000000000000000000, 0.0000000000000000000 ) ) ;
#318 = PRESENTATION_STYLE_ASSIGNMENT (( #212 ) ) ;
#319 = ORIENTED_EDGE ( 'NONE', *, *, #47, .F. ) ;
#320 = CLOSED_SHELL ( 'NONE', ( #558, #335, #193 ) ) ;
#321 = AXIS2_PLACEMENT_3D ( 'NONE', #402, #487, #218 ) ;
#322 = VECTOR ( 'NONE', #10, 1000.000000000000000 ) ;
#323 = SURFACE_STYLE_FILL_AREA ( #30 ) ;
#324 = UNCERTAINTY_MEASURE_WITH_UNIT (LENGTH_MEASURE( 1.000000000000000100E-005 ), #229, 'distance_accuracy_value', 'NONE');
#325 = PRESENTATION_LAYER_ASSIGNMENT (  '', '', ( #38 ) ) ;
#326 = PRESENTATION_LAYER_ASSIGNMENT (  '', '', ( #617 ) ) ;
#327 = ORIENTED_EDGE ( 'NONE', *, *, #158, .F. ) ;
#328 = VERTEX_POINT ( 'NONE', #31 ) ;
#329 = STYLED_ITEM ( 'NONE', ( #192 ), #412 ) ;
#330 = ORIENTED_EDGE ( 'NONE', *, *, #289, .F. ) ;
#331 = ORIENTED_EDGE ( 'NONE', *, *, #289, .T. ) ;
#332 = CLOSED_SHELL ( 'NONE', ( #240, #405, #85 ) ) ;
#333 = EDGE_CURVE ( 'NONE', #485, #465, #359, .T. ) ;
#334 = CARTESIAN_POINT ( 'NONE',  ( 0.2500000000000002200, 0.1125000000000003500, -0.1374999999999999000 ) ) ;
#335 = ADVANCED_FACE ( 'NONE', ( #578 ), #117, .T. ) ;
#336 = PLANE ( 'NONE',  #141 ) ;
#337 = SURFACE_STYLE_FILL_AREA ( #54 ) ;
#338 = DIRECTION ( 'NONE',  ( 1.000000000000000000, 7.666467083416847500E-016, 0.0000000000000000000 ) ) ;
#339 = UNCERTAINTY_MEASURE_WITH_UNIT (LENGTH_MEASURE( 1.000000000000000100E-005 ), #246, 'distance_accuracy_value', 'NONE');
#340 =( GEOMETRIC_REPRESENTATION_CONTEXT ( 3 ) GLOBAL_UNCERTAINTY_ASSIGNED_CONTEXT ( ( #174 ) ) GLOBAL_UNIT_ASSIGNED_CONTEXT ( ( #296, #482, #585 ) ) REPRESENTATION_CONTEXT ( 'NONE', 'WORKASPACE' ) );
#341 = DIRECTION ( 'NONE',  ( 1.000000000000000000, 7.666467083416847500E-016, 0.0000000000000000000 ) ) ;
#342 = VERTEX_POINT ( 'NONE', #551 ) ;
#343 = EDGE_CURVE ( 'NONE', #342, #621, #373, .T. ) ;
#344 = ORIENTED_EDGE ( 'NONE', *, *, #191, .F. ) ;
#345 = ORIENTED_EDGE ( 'NONE', *, *, #428, .T. ) ;
#346 =( NAMED_UNIT ( * ) SI_UNIT ( $, .STERADIAN. ) SOLID_ANGLE_UNIT ( ) );
#347 = CARTESIAN_POINT ( 'NONE',  ( -0.4440000000000003400, 0.4999999999999997800, 0.4439999999999998400 ) ) ;
#348 =( LENGTH_UNIT ( ) NAMED_UNIT ( * ) SI_UNIT ( .MILLI., .METRE. ) );
#349 = FACE_OUTER_BOUND ( 'NONE', #523, .T. ) ;
#350 = AXIS2_PLACEMENT_3D ( 'NONE', #261, #353, #586 ) ;
#351 = SURFACE_STYLE_FILL_AREA ( #205 ) ;
#352 = PLANE ( 'NONE',  #225 ) ;
#353 = DIRECTION ( 'NONE',  ( -0.0000000000000000000, 1.000000000000000000, 0.0000000000000000000 ) ) ;
#354 = ORIENTED_EDGE ( 'NONE', *, *, #414, .T. ) ;
#355 = AXIS2_PLACEMENT_3D ( 'NONE', #411, #317, #503 ) ;
#356 = AXIS2_PLACEMENT_3D ( 'NONE', #149, #387, #105 ) ;
#357 = DIRECTION ( 'NONE',  ( 1.220948392438631100E-016, 8.462293686766235400E-032, -1.000000000000000000 ) ) ;
#358 = PLANE ( 'NONE',  #514 ) ;
#359 = CIRCLE ( 'NONE', #81, 0.1125000000000000300 ) ;
#360 = DIRECTION ( 'NONE',  ( 6.930918406685710100E-016, -1.000000000000000000, 0.0000000000000000000 ) ) ;
#361 = UNCERTAINTY_MEASURE_WITH_UNIT (LENGTH_MEASURE( 1.000000000000000100E-005 ), #445, 'distance_accuracy_value', 'NONE');
#362 = ADVANCED_FACE ( 'NONE', ( #279 ), #358, .F. ) ;
#363 = CIRCLE ( 'NONE', #90, 0.1125000000000000000 ) ;
#364 = FACE_OUTER_BOUND ( 'NONE', #560, .T. ) ;
#365 = ORIENTED_EDGE ( 'NONE', *, *, #571, .T. ) ;
#366 = CARTESIAN_POINT ( 'NONE',  ( -0.2499999999999998900, 0.1125000000000000000, -0.3624999999999998800 ) ) ;
#367 = COLOUR_RGB ( '',0.7921568627450980000, 0.8196078431372548800, 0.9333333333333333500 ) ;
#368 = COLOUR_RGB ( '',0.7921568627450980000, 0.8196078431372548800, 0.9333333333333333500 ) ;
#369 = EDGE_CURVE ( 'NONE', #233, #155, #430, .T. ) ;
#370 = ORIENTED_EDGE ( 'NONE', *, *, #184, .T. ) ;
#371 =( LENGTH_UNIT ( ) NAMED_UNIT ( * ) SI_UNIT ( .MILLI., .METRE. ) );
#372 = AXIS2_PLACEMENT_3D ( 'NONE', #206, #51, #7 ) ;
#373 = LINE ( 'NONE', #501, #40 ) ;
#374 = AXIS2_PLACEMENT_3D ( 'NONE', #58, #207, #64 ) ;
#375 = CARTESIAN_POINT ( 'NONE',  ( -0.2499999999999998900, 0.1125000000000000000, 0.1375000000000001200 ) ) ;
#376 = VECTOR ( 'NONE', #294, 1000.000000000000000 ) ;
#377 = CLOSED_SHELL ( 'NONE', ( #281, #470, #609 ) ) ;
#378 = ORIENTED_EDGE ( 'NONE', *, *, #126, .F. ) ;
#379 = EDGE_CURVE ( 'NONE', #497, #342, #304, .T. ) ;
#380 = VECTOR ( 'NONE', #118, 1000.000000000000000 ) ;
#381 = STYLED_ITEM ( 'NONE', ( #511 ), #362 ) ;
#382 =( LENGTH_UNIT ( ) NAMED_UNIT ( * ) SI_UNIT ( .MILLI., .METRE. ) );
#383 = SURFACE_STYLE_FILL_AREA ( #86 ) ;
#384 = CARTESIAN_POINT ( 'NONE',  ( -1.343043231682494200E-016, 0.2000000000000000100, 0.0000000000000000000 ) ) ;
#385 = MECHANICAL_DESIGN_GEOMETRIC_PRESENTATION_REPRESENTATION (  '', ( #125 ), #493 ) ;
#386 = MANIFOLD_SOLID_BREP ( 'Sketch-Pattern1[2]', #320 ) ;
#387 = DIRECTION ( 'NONE',  ( -1.000000000000000000, -6.930918406685710100E-016, 0.0000000000000000000 ) ) ;
#388 = CARTESIAN_POINT ( 'NONE',  ( 0.2500000000000001700, 0.1125000000000003500, -0.2499999999999998900 ) ) ;
#389 = FACE_BOUND ( 'NONE', #146, .T. ) ;
#390 = CARTESIAN_POINT ( 'NONE',  ( 0.2500000000000001100, 0.2000000000000002100, -0.2499999999999998900 ) ) ;
#391 = ORIENTED_EDGE ( 'NONE', *, *, #2, .F. ) ;
#392 = CARTESIAN_POINT ( 'NONE',  ( -0.4440000000000003400, 0.4999999999999997800, 0.4439999999999998400 ) ) ;
#393 = CARTESIAN_POINT ( 'NONE',  ( -0.2499999999999998300, 0.1125000000000000000, -0.2499999999999998900 ) ) ;
#394 =( GEOMETRIC_REPRESENTATION_CONTEXT ( 3 ) GLOBAL_UNCERTAINTY_ASSIGNED_CONTEXT ( ( #324 ) ) GLOBAL_UNIT_ASSIGNED_CONTEXT ( ( #229, #449, #451 ) ) REPRESENTATION_CONTEXT ( 'NONE', 'WORKASPACE' ) );
#395 = CARTESIAN_POINT ( 'NONE',  ( 0.4439999999999996700, 0.5000000000000003300, 0.4439999999999999500 ) ) ;
#396 = PRESENTATION_LAYER_ASSIGNMENT (  '', '', ( #403 ) ) ;
#397 = SURFACE_STYLE_FILL_AREA ( #398 ) ;
#398 = FILL_AREA_STYLE ('',( #267 ) ) ;
#399 = EDGE_LOOP ( 'NONE', ( #435, #531 ) ) ;
#400 = DIRECTION ( 'NONE',  ( 1.000000000000000000, 6.715216158412471100E-016, 0.0000000000000000000 ) ) ;
#401 = FILL_AREA_STYLE_COLOUR ( '', #368 ) ;
#402 = CARTESIAN_POINT ( 'NONE',  ( -0.2499999999999998300, 0.1125000000000000000, -0.2499999999999998900 ) ) ;
#403 = STYLED_ITEM ( 'NONE', ( #257 ), #278 ) ;
#404 = DIRECTION ( 'NONE',  ( 6.715216158412471100E-016, -1.000000000000000000, 0.0000000000000000000 ) ) ;
#405 = ADVANCED_FACE ( 'NONE', ( #565 ), #546, .T. ) ;
#406 =( NAMED_UNIT ( * ) SI_UNIT ( $, .STERADIAN. ) SOLID_ANGLE_UNIT ( ) );
#407 = CARTESIAN_POINT ( 'NONE',  ( -3.422318753688207200E-016, 0.5000000000000000000, 0.0000000000000000000 ) ) ;
#408 = EDGE_LOOP ( 'NONE', ( #65, #92 ) ) ;
#409 = UNCERTAINTY_MEASURE_WITH_UNIT (LENGTH_MEASURE( 1.000000000000000100E-005 ), #600, 'distance_accuracy_value', 'NONE');
#410 = AXIS2_PLACEMENT_3D ( 'NONE', #388, #160, #259 ) ;
#411 = CARTESIAN_POINT ( 'NONE',  ( -0.2499999999999998900, 0.1999999999999998400, -0.2499999999999998900 ) ) ;
#412 = ADVANCED_FACE ( 'NONE', ( #349 ), #447, .T. ) ;
#413 = DIRECTION ( 'NONE',  ( 1.000000000000000000, 0.0000000000000000000, 0.0000000000000000000 ) ) ;
#414 = EDGE_CURVE ( 'NONE', #269, #239, #80, .T. ) ;
#415 = PRODUCT_CONTEXT ( 'NONE', #597, 'mechanical' ) ;
#416 = VERTEX_POINT ( 'NONE', #109 ) ;
#417 = STYLED_ITEM ( 'NONE', ( #94 ), #386 ) ;
#418 =( NAMED_UNIT ( * ) PLANE_ANGLE_UNIT ( ) SI_UNIT ( $, .RADIAN. ) );
#419 =( GEOMETRIC_REPRESENTATION_CONTEXT ( 3 ) GLOBAL_UNCERTAINTY_ASSIGNED_CONTEXT ( ( #219 ) ) GLOBAL_UNIT_ASSIGNED_CONTEXT ( ( #371, #418, #134 ) ) REPRESENTATION_CONTEXT ( 'NONE', 'WORKASPACE' ) );
#420 = VERTEX_POINT ( 'NONE', #13 ) ;
#421 = DIRECTION ( 'NONE',  ( 6.715216158412471100E-016, -1.000000000000000000, 0.0000000000000000000 ) ) ;
#422 = SPHERICAL_SURFACE ( 'NONE', #170, 0.1125000000000000000 ) ;
#423 = FACE_OUTER_BOUND ( 'NONE', #285, .T. ) ;
#424 = ORIENTED_EDGE ( 'NONE', *, *, #214, .F. ) ;
#425 = CARTESIAN_POINT ( 'NONE',  ( -1.343043231682494200E-016, 0.2000000000000000100, -0.5000000000000000000 ) ) ;
#426 = EDGE_LOOP ( 'NONE', ( #275, #434 ) ) ;
#427 = AXIS2_PLACEMENT_3D ( 'NONE', #458, #316, #602 ) ;
#428 = EDGE_CURVE ( 'NONE', #416, #621, #570, .T. ) ;
#429 = PLANE ( 'NONE',  #569 ) ;
#430 = CIRCLE ( 'NONE', #466, 0.07071067811865496000 ) ;
#431 = PRESENTATION_STYLE_ASSIGNMENT (( #221 ) ) ;
#432 = MECHANICAL_DESIGN_GEOMETRIC_PRESENTATION_REPRESENTATION (  '', ( #381 ), #298 ) ;
#433 = FILL_AREA_STYLE_COLOUR ( '', #273 ) ;
#434 = ORIENTED_EDGE ( 'NONE', *, *, #252, .T. ) ;
#435 = ORIENTED_EDGE ( 'NONE', *, *, #581, .T. ) ;
#436 = DIRECTION ( 'NONE',  ( 6.715216158412471100E-016, -1.000000000000000000, 0.0000000000000000000 ) ) ;
#437 = DIRECTION ( 'NONE',  ( 1.000000000000000000, 6.715216158412471100E-016, 1.220948392438631100E-016 ) ) ;
#438 = PRESENTATION_LAYER_ASSIGNMENT (  '', '', ( #559 ) ) ;
#439 = FILL_AREA_STYLE ('',( #433 ) ) ;
#440 = FILL_AREA_STYLE_COLOUR ( '', #17 ) ;
#441 = SURFACE_STYLE_FILL_AREA ( #444 ) ;
#442 = DIRECTION ( 'NONE',  ( -2.449293598294693300E-017, -1.000000000000000000, 1.180235306811531100E-032 ) ) ;
#443 = STYLED_ITEM ( 'NONE', ( #153 ), #140 ) ;
#444 = FILL_AREA_STYLE ('',( #440 ) ) ;
#445 =( LENGTH_UNIT ( ) NAMED_UNIT ( * ) SI_UNIT ( .MILLI., .METRE. ) );
#446 = ORIENTED_EDGE ( 'NONE', *, *, #508, .F. ) ;
#447 = PLANE ( 'NONE',  #520 ) ;
#448 = CARTESIAN_POINT ( 'NONE',  ( -0.2499999999999998300, 0.1125000000000000000, 0.2500000000000001100 ) ) ;
#449 =( NAMED_UNIT ( * ) PLANE_ANGLE_UNIT ( ) SI_UNIT ( $, .RADIAN. ) );
#450 = PRODUCT_DEFINITION_SHAPE ( 'NONE', 'NONE',  #67 ) ;
#451 =( NAMED_UNIT ( * ) SI_UNIT ( $, .STERADIAN. ) SOLID_ANGLE_UNIT ( ) );
#452 =( NAMED_UNIT ( * ) PLANE_ANGLE_UNIT ( ) SI_UNIT ( $, .RADIAN. ) );
#453 = PRODUCT_RELATED_PRODUCT_CATEGORY ( 'part', '', ( #48 ) ) ;
#454 = EDGE_CURVE ( 'NONE', #95, #497, #297, .T. ) ;
#455 = EDGE_LOOP ( 'NONE', ( #471, #327 ) ) ;
#456 = FILL_AREA_STYLE_COLOUR ( '', #60 ) ;
#457 = UNCERTAINTY_MEASURE_WITH_UNIT (LENGTH_MEASURE( 1.000000000000000100E-005 ), #506, 'distance_accuracy_value', 'NONE');
#458 = CARTESIAN_POINT ( 'NONE',  ( 0.2500000000000001700, 0.1125000000000003500, 0.2500000000000001100 ) ) ;
#459 = SURFACE_SIDE_STYLE ('',( #323 ) ) ;
#460 = ORIENTED_EDGE ( 'NONE', *, *, #152, .T. ) ;
#461 = CLOSED_SHELL ( 'NONE', ( #308, #314, #186 ) ) ;
#462 = MECHANICAL_DESIGN_GEOMETRIC_PRESENTATION_REPRESENTATION (  '', ( #329 ), #613 ) ;
#463 = EDGE_CURVE ( 'NONE', #8, #139, #282, .T. ) ;
#464 = EDGE_LOOP ( 'NONE', ( #424, #331 ) ) ;
#465 = VERTEX_POINT ( 'NONE', #112 ) ;
#466 = AXIS2_PLACEMENT_3D ( 'NONE', #215, #490, #587 ) ;
#467 = MECHANICAL_DESIGN_GEOMETRIC_PRESENTATION_REPRESENTATION (  '', ( #559 ), #44 ) ;
#468 = MANIFOLD_SOLID_BREP ( 'Sketch-Pattern1[1]', #461 ) ;
#469 = SURFACE_STYLE_FILL_AREA ( #496 ) ;
#470 = ADVANCED_FACE ( 'NONE', ( #199 ), #422, .T. ) ;
#471 = ORIENTED_EDGE ( 'NONE', *, *, #56, .F. ) ;
#472 = CARTESIAN_POINT ( 'NONE',  ( -0.4440000000000001200, 0.1999999999999997100, 0.4439999999999998400 ) ) ;
#473 =( GEOMETRIC_REPRESENTATION_CONTEXT ( 3 ) GLOBAL_UNCERTAINTY_ASSIGNED_CONTEXT ( ( #39 ) ) GLOBAL_UNIT_ASSIGNED_CONTEXT ( ( #598, #26, #346 ) ) REPRESENTATION_CONTEXT ( 'NONE', 'WORKASPACE' ) );
#474 =( NAMED_UNIT ( * ) PLANE_ANGLE_UNIT ( ) SI_UNIT ( $, .RADIAN. ) );
#475 = ORIENTED_EDGE ( 'NONE', *, *, #333, .F. ) ;
#476 = PLANE ( 'NONE',  #315 ) ;
#477 = ORIENTED_EDGE ( 'NONE', *, *, #478, .F. ) ;
#478 = EDGE_CURVE ( 'NONE', #485, #465, #557, .T. ) ;
#479 = SURFACE_STYLE_USAGE ( .BOTH. , #527 ) ;
#480 =( NAMED_UNIT ( * ) SI_UNIT ( $, .STERADIAN. ) SOLID_ANGLE_UNIT ( ) );
#481 = FACE_OUTER_BOUND ( 'NONE', #167, .T. ) ;
#482 =( NAMED_UNIT ( * ) PLANE_ANGLE_UNIT ( ) SI_UNIT ( $, .RADIAN. ) );
#483 = CARTESIAN_POINT ( 'NONE',  ( 0.2500000000000001100, 0.2000000000000002100, -0.2499999999999998900 ) ) ;
#484 = VERTEX_POINT ( 'NONE', #486 ) ;
#485 = VERTEX_POINT ( 'NONE', #249 ) ;
#486 = CARTESIAN_POINT ( 'NONE',  ( -0.3207106781186548300, 0.1999999999999997900, -0.2499999999999998900 ) ) ;
#487 = DIRECTION ( 'NONE',  ( -0.0000000000000000000, 1.000000000000000000, 0.0000000000000000000 ) ) ;
#488 = CARTESIAN_POINT ( 'NONE',  ( -0.4440000000000003400, 0.4999999999999997800, -0.4440000000000001700 ) ) ;
#489 = DIRECTION ( 'NONE',  ( 6.930918406685710100E-016, -1.000000000000000000, 0.0000000000000000000 ) ) ;
#490 = DIRECTION ( 'NONE',  ( 6.715216158412471100E-016, -1.000000000000000000, 0.0000000000000000000 ) ) ;
#491 = FACE_OUTER_BOUND ( 'NONE', #195, .T. ) ;
#492 = SURFACE_SIDE_STYLE ('',( #469 ) ) ;
#493 =( GEOMETRIC_REPRESENTATION_CONTEXT ( 3 ) GLOBAL_UNCERTAINTY_ASSIGNED_CONTEXT ( ( #409 ) ) GLOBAL_UNIT_ASSIGNED_CONTEXT ( ( #600, #181, #226 ) ) REPRESENTATION_CONTEXT ( 'NONE', 'WORKASPACE' ) );
#494 = LINE ( 'NONE', #154, #376 ) ;
#495 = EDGE_CURVE ( 'NONE', #104, #311, #59, .T. ) ;
#496 = FILL_AREA_STYLE ('',( #66 ) ) ;
#497 = VERTEX_POINT ( 'NONE', #159 ) ;
#498 = ORIENTED_EDGE ( 'NONE', *, *, #379, .T. ) ;
#499 = FILL_AREA_STYLE_COLOUR ( '', #247 ) ;
#500 = PLANE ( 'NONE',  #196 ) ;
#501 = CARTESIAN_POINT ( 'NONE',  ( -0.4440000000000003400, 0.4999999999999997800, 0.4439999999999998400 ) ) ;
#502 = CIRCLE ( 'NONE', #238, 0.1125000000000000300 ) ;
#503 = DIRECTION ( 'NONE',  ( 1.000000000000000000, 7.666467083416847500E-016, 0.0000000000000000000 ) ) ;
#504 = PRESENTATION_LAYER_ASSIGNMENT (  '', '', ( #417 ) ) ;
#505 = ORIENTED_EDGE ( 'NONE', *, *, #2, .T. ) ;
#506 =( LENGTH_UNIT ( ) NAMED_UNIT ( * ) SI_UNIT ( .MILLI., .METRE. ) );
#507 = CARTESIAN_POINT ( 'NONE',  ( -0.2499999999999998300, 0.1125000000000000000, 0.2500000000000001100 ) ) ;
#508 = EDGE_CURVE ( 'NONE', #497, #416, #510, .T. ) ;
#509 = ADVANCED_FACE ( 'NONE', ( #491 ), #71, .T. ) ;
#510 = LINE ( 'NONE', #549, #380 ) ;
#511 = PRESENTATION_STYLE_ASSIGNMENT (( #78 ) ) ;
#512 = PRESENTATION_STYLE_ASSIGNMENT (( #615 ) ) ;
#513 = VECTOR ( 'NONE', #197, 1000.000000000000000 ) ;
#514 = AXIS2_PLACEMENT_3D ( 'NONE', #407, #404, #176 ) ;
#515 = DIRECTION ( 'NONE',  ( 0.0000000000000000000, 0.0000000000000000000, 1.000000000000000000 ) ) ;
#516 = VERTEX_POINT ( 'NONE', #488 ) ;
#517 = CIRCLE ( 'NONE', #355, 0.07071067811865496000 ) ;
#518 = UNCERTAINTY_MEASURE_WITH_UNIT (LENGTH_MEASURE( 1.000000000000000100E-005 ), #4, 'distance_accuracy_value', 'NONE');
#519 = CIRCLE ( 'NONE', #101, 0.07071067811865496000 ) ;
#520 = AXIS2_PLACEMENT_3D ( 'NONE', #392, #163, #541 ) ;
#521 = CARTESIAN_POINT ( 'NONE',  ( 0.4439999999999996700, 0.5000000000000003300, -0.4440000000000000600 ) ) ;
#522 = DIRECTION ( 'NONE',  ( 1.000000000000000000, 6.715216158412471100E-016, 0.0000000000000000000 ) ) ;
#523 = EDGE_LOOP ( 'NONE', ( #37, #446, #498, #280 ) ) ;
#524 =( GEOMETRIC_REPRESENTATION_CONTEXT ( 3 ) GLOBAL_UNCERTAINTY_ASSIGNED_CONTEXT ( ( #457 ) ) GLOBAL_UNIT_ASSIGNED_CONTEXT ( ( #506, #75, #406 ) ) REPRESENTATION_CONTEXT ( 'NONE', 'WORKASPACE' ) );
#525 = STYLED_ITEM ( 'NONE', ( #120 ), #97 ) ;
#526 = DIRECTION ( 'NONE',  ( 6.715216158412471100E-016, -1.000000000000000000, 0.0000000000000000000 ) ) ;
#527 = SURFACE_SIDE_STYLE ('',( #21 ) ) ;
#528 = SURFACE_STYLE_FILL_AREA ( #564 ) ;
#529 =( NAMED_UNIT ( * ) SI_UNIT ( $, .STERADIAN. ) SOLID_ANGLE_UNIT ( ) );
#530 = SURFACE_SIDE_STYLE ('',( #441 ) ) ;
#531 = ORIENTED_EDGE ( 'NONE', *, *, #126, .T. ) ;
#532 = VERTEX_POINT ( 'NONE', #306 ) ;
#533 = AXIS2_PLACEMENT_3D ( 'NONE', #448, #224, #601 ) ;
#534 =( NAMED_UNIT ( * ) PLANE_ANGLE_UNIT ( ) SI_UNIT ( $, .RADIAN. ) );
#535 = SURFACE_SIDE_STYLE ('',( #351 ) ) ;
#536 = DIRECTION ( 'NONE',  ( 1.000000000000000000, 6.930918406685710100E-016, 0.0000000000000000000 ) ) ;
#537 =( GEOMETRIC_REPRESENTATION_CONTEXT ( 3 ) GLOBAL_UNCERTAINTY_ASSIGNED_CONTEXT ( ( #236 ) ) GLOBAL_UNIT_ASSIGNED_CONTEXT ( ( #244, #583, #480 ) ) REPRESENTATION_CONTEXT ( 'NONE', 'WORKASPACE' ) );
#538 = DIRECTION ( 'NONE',  ( -1.000000000000000000, -6.715216158412471100E-016, -1.220948392438631100E-016 ) ) ;
#539 = CARTESIAN_POINT ( 'NONE',  ( 0.2500000000000001100, 0.2000000000000002100, 0.2500000000000001100 ) ) ;
#540 = ORIENTED_EDGE ( 'NONE', *, *, #158, .T. ) ;
#541 = DIRECTION ( 'NONE',  ( 1.000000000000000000, 0.0000000000000000000, 1.220948392438631100E-016 ) ) ;
#542 = DIRECTION ( 'NONE',  ( 6.715216158412471100E-016, -1.000000000000000000, 0.0000000000000000000 ) ) ;
#543 = PRESENTATION_LAYER_ASSIGNMENT (  '', '', ( #329 ) ) ;
#544 = UNCERTAINTY_MEASURE_WITH_UNIT (LENGTH_MEASURE( 1.000000000000000100E-005 ), #131, 'distance_accuracy_value', 'NONE');
#545 = CARTESIAN_POINT ( 'NONE',  ( -0.2499999999999998300, 0.1125000000000000000, -0.2499999999999998900 ) ) ;
#546 = SPHERICAL_SURFACE ( 'NONE', #374, 0.1125000000000000000 ) ;
#547 = DIRECTION ( 'NONE',  ( -6.930918406685710100E-016, 1.000000000000000000, 0.0000000000000000000 ) ) ;
#548 = MECHANICAL_DESIGN_GEOMETRIC_PRESENTATION_REPRESENTATION (  '', ( #38 ), #524 ) ;
#549 = CARTESIAN_POINT ( 'NONE',  ( 0.4439999999999996700, 0.5000000000000003300, 0.4439999999999999500 ) ) ;
#550 = PRESENTATION_STYLE_ASSIGNMENT (( #242 ) ) ;
#551 = CARTESIAN_POINT ( 'NONE',  ( -0.4440000000000003400, 0.4999999999999997800, 0.4439999999999998400 ) ) ;
#552 = ORIENTED_EDGE ( 'NONE', *, *, #56, .T. ) ;
#553 = VERTEX_POINT ( 'NONE', #123 ) ;
#554 = CARTESIAN_POINT ( 'NONE',  ( 0.2500000000000001700, 0.1125000000000003500, 0.2500000000000001100 ) ) ;
#555 = CARTESIAN_POINT ( 'NONE',  ( 0.4999999999999998900, 0.2000000000000003700, -0.5000000000000000000 ) ) ;
#556 = CARTESIAN_POINT ( 'NONE',  ( -0.2499999999999998300, 0.1125000000000000000, 0.2500000000000001100 ) ) ;
#557 = CIRCLE ( 'NONE', #11, 0.1125000000000000000 ) ;
#558 = ADVANCED_FACE ( 'NONE', ( #188, #99 ), #162, .T. ) ;
#559 = STYLED_ITEM ( 'NONE', ( #318 ), #468 ) ;
#560 = EDGE_LOOP ( 'NONE', ( #293, #268, #83, #580 ) ) ;
#561 = AXIS2_PLACEMENT_3D ( 'NONE', #168, #515, #88 ) ;
#562 = PRODUCT_DEFINITION_CONTEXT ( 'detailed design', #611, 'design' ) ;
#563 = MECHANICAL_DESIGN_GEOMETRIC_PRESENTATION_REPRESENTATION (  '', ( #525 ), #87 ) ;
#564 = FILL_AREA_STYLE ('',( #401 ) ) ;
#565 = FACE_OUTER_BOUND ( 'NONE', #408, .T. ) ;
#566 = COLOUR_RGB ( '',0.2509803921568627400, 0.2509803921568627400, 0.2509803921568627400 ) ;
#567 = ORIENTED_EDGE ( 'NONE', *, *, #379, .F. ) ;
#568 = CARTESIAN_POINT ( 'NONE',  ( 0.4439999999999998900, 0.2000000000000003200, 0.4439999999999999500 ) ) ;
#569 = AXIS2_PLACEMENT_3D ( 'NONE', #384, #526, #577 ) ;
#570 = LINE ( 'NONE', #61, #595 ) ;
#571 = EDGE_CURVE ( 'NONE', #95, #239, #69, .T. ) ;
#572 = CLOSED_SHELL ( 'NONE', ( #228, #509, #97, #412, #362, #145 ) ) ;
#573 = CARTESIAN_POINT ( 'NONE',  ( -0.2499999999999998900, 0.1999999999999998400, 0.2500000000000001100 ) ) ;
#574 = ORIENTED_EDGE ( 'NONE', *, *, #571, .F. ) ;
#575 = PLANE ( 'NONE',  #356 ) ;
#576 = PRESENTATION_LAYER_ASSIGNMENT (  '', '', ( #164 ) ) ;
#577 = DIRECTION ( 'NONE',  ( 1.000000000000000000, 6.715216158412471100E-016, 0.0000000000000000000 ) ) ;
#578 = FACE_OUTER_BOUND ( 'NONE', #231, .T. ) ;
#579 = ORIENTED_EDGE ( 'NONE', *, *, #581, .F. ) ;
#580 = ORIENTED_EDGE ( 'NONE', *, *, #200, .T. ) ;
#581 = EDGE_CURVE ( 'NONE', #328, #484, #517, .T. ) ;
#582 = CARTESIAN_POINT ( 'NONE',  ( 0.1792893218813451700, 0.2000000000000001500, 0.2500000000000001100 ) ) ;
#583 =( NAMED_UNIT ( * ) PLANE_ANGLE_UNIT ( ) SI_UNIT ( $, .RADIAN. ) );
#584 = MANIFOLD_SOLID_BREP ( 'Housing', #572 ) ;
#585 =( NAMED_UNIT ( * ) SI_UNIT ( $, .STERADIAN. ) SOLID_ANGLE_UNIT ( ) );
#586 = DIRECTION ( 'NONE',  ( 1.000000000000000000, 0.0000000000000000000, -4.818676322157796400E-016 ) ) ;
#587 = DIRECTION ( 'NONE',  ( 1.000000000000000000, 7.666467083416847500E-016, 0.0000000000000000000 ) ) ;
#588 = EDGE_LOOP ( 'NONE', ( #84, #614 ) ) ;
#589 = CARTESIAN_POINT ( 'NONE',  ( 0.4439999999999996700, 0.5000000000000003300, 0.4439999999999999500 ) ) ;
#590 = ORIENTED_EDGE ( 'NONE', *, *, #252, .F. ) ;
#591 = MECHANICAL_DESIGN_GEOMETRIC_PRESENTATION_REPRESENTATION (  '', ( #403 ), #220 ) ;
#592 = DIRECTION ( 'NONE',  ( 6.715216158412471100E-016, -1.000000000000000000, 0.0000000000000000000 ) ) ;
#593 = DIRECTION ( 'NONE',  ( -1.000000000000000000, -6.715216158412471100E-016, -1.220948392438631100E-016 ) ) ;
#594 = DIRECTION ( 'NONE',  ( -2.449293598294693300E-017, -1.000000000000000000, 1.180235306811531100E-032 ) ) ;
#595 = VECTOR ( 'NONE', #593, 1000.000000000000000 ) ;
#596 = CIRCLE ( 'NONE', #36, 0.1125000000000000300 ) ;
#597 = APPLICATION_CONTEXT ( 'automotive_design' ) ;
#598 =( LENGTH_UNIT ( ) NAMED_UNIT ( * ) SI_UNIT ( .MILLI., .METRE. ) );
#599 = CARTESIAN_POINT ( 'NONE',  ( 0.4439999999999996700, 0.5000000000000003300, -0.4440000000000000600 ) ) ;
#600 =( LENGTH_UNIT ( ) NAMED_UNIT ( * ) SI_UNIT ( .MILLI., .METRE. ) );
#601 = DIRECTION ( 'NONE',  ( 1.000000000000000000, 0.0000000000000000000, -4.818676322157797400E-016 ) ) ;
#602 = DIRECTION ( 'NONE',  ( 1.000000000000000000, 0.0000000000000000000, -4.818676322157796400E-016 ) ) ;
#603 = VECTOR ( 'NONE', #437, 1000.000000000000000 ) ;
#604 = FILL_AREA_STYLE ('',( #72 ) ) ;
#605 = SURFACE_SIDE_STYLE ('',( #610 ) ) ;
#606 = VECTOR ( 'NONE', #489, 1000.000000000000000 ) ;
#607 = FACE_OUTER_BOUND ( 'NONE', #203, .T. ) ;
#608 = FILL_AREA_STYLE_COLOUR ( '', #260 ) ;
#609 = ADVANCED_FACE ( 'NONE', ( #481 ), #352, .F. ) ;
#610 = SURFACE_STYLE_FILL_AREA ( #270 ) ;
#611 = APPLICATION_CONTEXT ( 'automotive_design' ) ;
#612 = SURFACE_STYLE_FILL_AREA ( #604 ) ;
#613 =( GEOMETRIC_REPRESENTATION_CONTEXT ( 3 ) GLOBAL_UNCERTAINTY_ASSIGNED_CONTEXT ( ( #55 ) ) GLOBAL_UNIT_ASSIGNED_CONTEXT ( ( #348, #20, #6 ) ) REPRESENTATION_CONTEXT ( 'NONE', 'WORKASPACE' ) );
#614 = ORIENTED_EDGE ( 'NONE', *, *, #463, .T. ) ;
#615 = SURFACE_STYLE_USAGE ( .BOTH. , #274 ) ;
#616 = AXIS2_PLACEMENT_3D ( 'NONE', #545, #27, #223 ) ;
#617 = STYLED_ITEM ( 'NONE', ( #550 ), #145 ) ;
#618 = SURFACE_STYLE_FILL_AREA ( #62 ) ;
#619 = CIRCLE ( 'NONE', #135, 0.07071067811865496000 ) ;
#620 = VECTOR ( 'NONE', #43, 1000.000000000000000 ) ;
#621 = VERTEX_POINT ( 'NONE', #68 ) ;
#622 = ORIENTED_EDGE ( 'NONE', *, *, #184, .F. ) ;
#623 = MECHANICAL_DESIGN_GEOMETRIC_PRESENTATION_REPRESENTATION (  '', ( #417 ), #340 ) ;
#624 = CIRCLE ( 'NONE', #183, 0.07071067811865496000 ) ;
ENDSEC;
END-ISO-10303-21;
